<svg xmlns="http://www.w3.org/2000/svg" width="123.698" height="126.582" viewBox="1078.5 745.035 123.698 126.582"><g data-name="Group 311"><g data-name="Group 298" transform="translate(1078.5 745.035)" clip-path="url(&quot;#a&quot;)"><g data-name="Group 38"><g data-name="Group 37" transform="translate(0 59.688)" clip-path="url(&quot;#b&quot;)"><path d="M0 0h123.698v31.61H0V0z" fill-rule="evenodd" fill="url(&quot;#c&quot;)" data-name="Rectangle 27"/></g></g><g data-name="Group 40"><g data-name="Group 39" transform="translate(13.716 93.96)" clip-path="url(&quot;#d&quot;)"><path d="M0 0h96.265v15.638H0V0z" fill-rule="evenodd" fill="url(&quot;#e&quot;)" data-name="Rectangle 28"/></g></g><g data-name="Group 42"><g data-name="Group 41" transform="translate(13.716 41.388)" clip-path="url(&quot;#f&quot;)"><path d="M0 0h96.266v15.306H0V0z" fill-rule="evenodd" fill="url(&quot;#g&quot;)" data-name="Rectangle 29"/></g></g><g data-name="Group 50"><g data-name="Group 49" clip-path="url(&quot;#h&quot;)"><g data-name="Group 45"><g data-name="Group 44"><g data-name="Group 43" transform="translate(0 41.388)" clip-path="url(&quot;#i&quot;)"><path d="M2.61 34.105c0 4.174 10.525 15.805 11.62 15.805h-2.609C10.526 49.91 0 38.28 0 34.105 0 29.932 10.526 18.3 11.621 18.3h2.61c-1.096 0-11.622 11.632-11.622 15.805" fill="#5b6cb2" fill-rule="evenodd" data-name="Path 10"/><path d="M27.946 68.21h-2.609c-1.095 0-11.62-11.312-11.62-15.638h2.608c0 4.326 10.526 15.639 11.621 15.639" fill="#5b6cb2" fill-rule="evenodd" data-name="Path 11"/><path d="M16.325 15.306h-2.609C13.716 11.313 24.242 0 25.337 0h2.61C26.85 0 16.324 11.313 16.324 15.306" fill="#5b6cb2" fill-rule="evenodd" data-name="Path 12"/></g></g></g><g data-name="Group 48"><g data-name="Group 47"><g data-name="Group 46" transform="translate(95.752 41.388)" clip-path="url(&quot;#j&quot;)"><path d="M25.337 34.105c0 4.174-10.526 15.805-11.62 15.805h2.609c1.094 0 11.62-11.631 11.62-15.805 0-4.173-10.526-15.805-11.62-15.805h-2.61c1.095 0 11.621 11.632 11.621 15.805" fill="#5b6cb2" fill-rule="evenodd" data-name="Path 13"/><path d="M0 68.21h2.61c1.094 0 11.62-11.312 11.62-15.638h-2.609c0 4.326-10.526 15.639-11.621 15.639" fill="#5b6cb2" fill-rule="evenodd" data-name="Path 14"/><path d="M11.621 15.306h2.61C14.23 11.313 3.703 0 2.608 0H0c1.095 0 11.621 11.313 11.621 15.306" fill="#5b6cb2" fill-rule="evenodd" data-name="Path 15"/></g></g></g></g></g><g data-name="Group 52"><g data-name="Group 51" transform="translate(26.726)" clip-path="url(&quot;#k&quot;)"><path d="M0 0h70.134v42.802H0V0z" fill-rule="evenodd" fill="url(&quot;#l&quot;)" data-name="Rectangle 33"/></g></g><g data-name="Group 57"><g data-name="Group 56" clip-path="url(&quot;#m&quot;)"><g data-name="Group 55"><g data-name="Group 54"><g data-name="Group 53" transform="translate(26.85)" clip-path="url(&quot;#n&quot;)"><path d="M36.575 7.637c-.044.02-.077.077-.122.096l9.79 14.645 7.2-6.467c-.575-.594-.356-.14-.356-1.032a3.303 3.303 0 0 1 5.496-2.468 3.305 3.305 0 0 0-6.547.634c0 .891.357 1.7.932 2.294l-7.775 5.205-8.618-12.907Z" fill="#fff" fill-rule="evenodd" data-name="Path 17"/><path d="M32.125 5.806a3.97 3.97 0 0 1 6.763-2.824 3.97 3.97 0 0 0-7.814.99c0 1.102.45 2.098 1.176 2.817a3.967 3.967 0 0 1-.125-.983" fill="#fff" fill-rule="evenodd" data-name="Path 18"/><path d="M55.942 24.027c.004.802.204 1.425.519 1.906 4.068-.496 8.026-1.748 10.264-2.55a2.58 2.58 0 0 1-.743-1.813 2.602 2.602 0 0 1 4.139-2.094 2.602 2.602 0 0 0-5.19.26c0 .706.284 1.344.743 1.811-2.14.768-5.853 1.945-9.732 2.48" fill="#fff" fill-rule="evenodd" data-name="Path 19"/><path d="M16.289 23.76a87.39 87.39 0 0 1-.063-5.6c-.126.012-.847-1.789-1.068-1.836-.002 1.174.019 4.28.08 5.603.045.936-.166 1.642-.516 2.177-3.165-.382-6.26-1.223-8.537-1.957-.11.48-.348.91-.682 1.247 2.246.804 6.204 2.054 10.27 2.545.35-.535.56-1.242.516-2.178" fill="#fff" fill-rule="evenodd" data-name="Path 20"/><path d="m18.218 17.173 7.743 5.184 7.77-11.857c.536-1.238.189-2.374-.218-2.863l-8.602 12.885-7.744-5.183c-.147.28-.01.687 1.051 1.834" fill="#fff" fill-rule="evenodd" data-name="Path 21"/><path d="M7.394 42.77 3.993 24.144c-.09.009-.214.028-.308.028-.154 0-.183-.017-.33-.043L6.529 41.2v1.602s.072-.013.865-.032" fill="#fff" fill-rule="evenodd" data-name="Path 22"/><path d="M1.05 21.57a2.6 2.6 0 0 1 2.6-2.6 2.58 2.58 0 0 1 1.538.506 2.6 2.6 0 0 0-5.188.26c0 .86.42 1.621 1.064 2.095a2.576 2.576 0 0 1-.014-.261" fill="#fff" fill-rule="evenodd" data-name="Path 23"/><path d="M12.602 15.512a3.304 3.304 0 0 1 3.242-3.936c.842 0 1.608.317 2.191.835a3.304 3.304 0 0 0-6.546.634c0 .982.432 1.862 1.113 2.467" fill="#fff" fill-rule="evenodd" data-name="Path 24"/></g></g></g></g></g><g data-name="Group 59"><g data-name="Group 58" transform="translate(13.821 33.364)" clip-path="url(&quot;#o&quot;)"><path d="M0 0h42.717v78.923H0V0z" fill-rule="evenodd" fill="url(&quot;#p&quot;)" transform="rotate(-2.352 1.446 84.22)" data-name="Rectangle 36"/></g></g><g data-name="Group 79"><g data-name="Group 78" clip-path="url(&quot;#q&quot;)"><g data-name="Group 62"><g data-name="Group 61"><g data-name="Group 60" transform="translate(13.821 33.366)" clip-path="url(&quot;#r&quot;)"><path d="M3.32 46.009C.758 36.757 1.05 35.639 1.05 35.639h5.694S5.037 33.616 8.168 23.51C11.3 13.404 14.29 11.397 14.29 11.397l4.27 4.406s1.85-4.559 6.548-8.544c4.066-3.45 8.235-5.195 9.284-5.6l-.788-1.66s-4.84 1.708-9.537 5.694c-4.698 3.985-6.548 8.54-6.548 8.54l-4.27-4.414s-2.99 1.972-6.121 12.079C3.995 32.004 5.703 33.975 5.703 33.975H.01s-.293 1.17 2.268 10.422a29.79 29.79 0 0 0 4.444 9.295 29.168 29.168 0 0 1-3.402-7.683" fill="#fff" fill-rule="evenodd" data-name="Path 26"/><path d="M13.108 58.482s-.16-.25-2.276.416l-5.734 3.34s.35.57 1.165 1.49l6.845-5.246Z" fill="#fff" fill-rule="evenodd" data-name="Path 27"/></g></g></g><g data-name="Group 65"><g data-name="Group 64"><g data-name="Group 63" transform="translate(13.821 33.365)" clip-path="url(&quot;#s&quot;)"><path d="M39.292 8.13 33.602 0s-4.84 1.708-9.536 5.694c-4.698 3.985-6.548 8.54-6.548 8.54l-4.27-4.414s-2.989 1.973-6.121 12.08C3.996 32.004 5.703 33.975 5.703 33.975H.01s-.293 1.17 2.269 10.422c2.561 9.252 8.958 14.256 8.958 14.256l-6.139 3.58S6.31 64.22 9.521 66.77a40.489 40.489 0 0 0 8.992 1.007 40.19 40.19 0 0 0 19.759-5.158l1.02-54.49Z" fill="#fff" fill-rule="evenodd" data-name="Path 28"/></g></g></g><g data-name="Group 68"><g data-name="Group 67"><g data-name="Group 66" transform="translate(13.821 33.365)" clip-path="url(&quot;#t&quot;)"><path d="m38.055 47.933 1.237-39.804L33.602 0s-4.84 1.708-9.536 5.694c-4.698 3.985-6.548 8.54-6.548 8.54l-4.27-4.414s-2.99 1.973-6.121 12.08C3.995 32.004 5.703 33.975 5.703 33.975H.01s-.293 1.17 2.268 10.422c.122.44.255.876.393 1.296a30.942 30.942 0 0 0 19.294 6.72 30.92 30.92 0 0 0 16.09-4.481" fill="#fff" fill-rule="evenodd" data-name="Path 29"/></g></g></g><g data-name="Group 71"><g data-name="Group 70"><g data-name="Group 69" transform="translate(21.081 33.365)" clip-path="url(&quot;#u&quot;)"><path d="m30.58 33.307 1.452-25.178L26.342 0s-4.84 1.708-9.537 5.694c-4.697 3.985-6.547 8.54-6.547 8.54L5.987 9.82S3.082 11.76 0 21.496c3.832 8.037 12.03 13.591 21.528 13.591 3.205 0 6.26-.634 9.052-1.78" fill="#fff" fill-rule="evenodd" data-name="Path 30"/></g></g></g><g data-name="Group 74"><g data-name="Group 73"><g data-name="Group 72" transform="translate(34.515 33.365)" clip-path="url(&quot;#v&quot;)"><path d="M0 9.155c2.306 4.748 7.175 8.02 12.807 8.02 1.423 0 2.796-.21 4.093-.6L18.6 8.13 12.909 0S8.07 1.708 3.372 5.694A25.745 25.745 0 0 0 0 9.155" fill="#fff" fill-rule="evenodd" data-name="Path 31"/></g></g></g><g data-name="Group 77"><g data-name="Group 76"><g data-name="Group 75" transform="translate(13.82 64.475)" clip-path="url(&quot;#w&quot;)"><path d="M5.705 1.867S5.344 1.443 5.26 0c-.039.796-.008 1.202.052 1.867h.394Z" fill="#fff" fill-rule="evenodd" data-name="Path 32"/><path d="M20.295 40.395c-8.807-3.479-13.022-7.806-14.523-9.658l-.672.392s3.666 6.013 15.195 10.569c11.53 4.554 18.149 1.351 18.149 1.351l-.02-1.292c-.393.18-6.953 3.053-18.129-1.362" fill="#fff" fill-rule="evenodd" data-name="Path 33"/><path d="m11.2 27.552 1.91-.31S4.823 21.238 2.26 11.986C.84 6.854.319 4.196.118 2.866H.012S-.3 4.035 2.261 13.286c1.975 7.13 6.554 12.35 8.94 14.265" fill="#fff" fill-rule="evenodd" data-name="Path 34"/></g></g></g></g></g><g data-name="Group 81"><g data-name="Group 80" transform="translate(69.27 33.364)" clip-path="url(&quot;#x&quot;)"><path d="M0 0h78.888v41.867H0V0z" fill-rule="evenodd" fill="url(&quot;#y&quot;)" transform="rotate(-87.648 38.65 40.27)" data-name="Rectangle 44"/></g></g><g data-name="Group 101"><g data-name="Group 100" clip-path="url(&quot;#z&quot;)"><g data-name="Group 84"><g data-name="Group 83"><g data-name="Group 82" transform="translate(73.321 33.366)" clip-path="url(&quot;#A&quot;)"><path d="M31.071 46.009c2.561-9.252 2.268-10.37 2.268-10.37h-5.693s1.708-2.022-1.424-12.128c-3.131-10.107-6.12-12.114-6.12-12.114l-4.27 4.406s-1.851-4.559-6.548-8.544C5.218 3.809 1.048 2.064 0 1.659l.788-1.66s4.84 1.708 9.537 5.694c4.697 3.985 6.548 8.54 6.548 8.54l4.27-4.414s2.99 1.972 6.121 12.079c3.132 10.106 1.424 12.077 1.424 12.077h5.692s.294 1.17-2.268 10.422a29.804 29.804 0 0 1-4.443 9.295c1.305-2.094 2.56-4.644 3.402-7.683" fill="#fff" fill-rule="evenodd" data-name="Path 36"/><path d="M21.283 58.482s.16-.25 2.276.416l5.733 3.34s-.348.57-1.164 1.49l-6.845-5.246Z" fill="#fff" fill-rule="evenodd" data-name="Path 37"/></g></g></g><g data-name="Group 87"><g data-name="Group 86"><g data-name="Group 85" transform="translate(69.44 33.365)" clip-path="url(&quot;#B&quot;)"><path d="M.282 6.828 4.67 0s4.84 1.708 9.537 5.694c4.697 3.985 6.547 8.54 6.547 8.54l4.27-4.414s2.99 1.973 6.122 12.08c3.13 10.105 1.423 12.076 1.423 12.076h5.693s.294 1.17-2.268 10.422-8.959 14.256-8.959 14.256l6.138 3.58s-1.212 1.986-4.422 4.536a40.487 40.487 0 0 1-8.993 1.007A40.194 40.194 0 0 1 0 62.62L.282 6.828Z" fill="#fff" fill-rule="evenodd" data-name="Path 38"/></g></g></g><g data-name="Group 90"><g data-name="Group 89"><g data-name="Group 88" transform="translate(69.657 33.365)" clip-path="url(&quot;#C&quot;)"><path d="M0 47.933.065 6.827 4.453 0s4.84 1.708 9.537 5.694c4.697 3.985 6.548 8.54 6.548 8.54l4.27-4.414s2.99 1.973 6.12 12.08c3.132 10.105 1.424 12.076 1.424 12.076h5.693s.294 1.17-2.268 10.422c-.122.44-.255.876-.393 1.296a30.942 30.942 0 0 1-19.294 6.72A30.92 30.92 0 0 1 0 47.933" fill="#fff" fill-rule="evenodd" data-name="Path 39"/></g></g></g><g data-name="Group 93"><g data-name="Group 92"><g data-name="Group 91" transform="translate(69.722 33.365)" clip-path="url(&quot;#D&quot;)"><path d="M.15 33.307 0 6.827 4.388 0s4.84 1.708 9.537 5.694c4.697 3.985 6.547 8.54 6.547 8.54l4.27-4.414s2.905 1.94 5.988 11.676C26.898 29.533 18.699 35.087 9.2 35.087c-3.204 0-6.26-.634-9.051-1.78" fill="#fff" fill-rule="evenodd" data-name="Path 40"/></g></g></g><g data-name="Group 96"><g data-name="Group 95"><g data-name="Group 94" transform="translate(69.722 33.365)" clip-path="url(&quot;#E&quot;)"><path d="M17.297 9.155c-2.307 4.748-7.175 8.02-12.808 8.02a14.23 14.23 0 0 1-4.093-.6L0 6.829 4.388 0s4.84 1.708 9.537 5.694a25.838 25.838 0 0 1 3.372 3.461" fill="#fff" fill-rule="evenodd" data-name="Path 41"/></g></g></g><g data-name="Group 99"><g data-name="Group 98"><g data-name="Group 97" transform="translate(69.27 64.475)" clip-path="url(&quot;#F&quot;)"><path d="M32.739 1.867s.361-.424.446-1.867c.038.796.008 1.202-.053 1.867h-.393Z" fill="#fff" fill-rule="evenodd" data-name="Path 42"/><path d="M18.148 40.395c8.808-3.479 13.023-7.806 14.524-9.658l.671.392s-3.665 6.013-15.195 10.569C6.618 46.252 0 43.049 0 43.049l.02-1.292c.392.18 6.953 3.053 18.128-1.362" fill="#fff" fill-rule="evenodd" data-name="Path 43"/><path d="m27.243 27.552-1.909-.31s8.286-6.004 10.848-15.256c1.422-5.132 1.944-7.79 2.146-9.12h.104s.313 1.17-2.25 10.421c-1.973 7.13-6.553 12.35-8.939 14.265" fill="#fff" fill-rule="evenodd" data-name="Path 44"/></g></g></g></g></g><g data-name="Group 103"><g data-name="Group 102" transform="translate(47.118 13.965)" clip-path="url(&quot;#G&quot;)"><path d="M0 0h40.43v29.75H0V0z" fill-rule="evenodd" fill="url(&quot;#H&quot;)" transform="rotate(-86.583 19.397 20.59)" data-name="Rectangle 52"/></g></g><g data-name="Group 108"><g data-name="Group 107" clip-path="url(&quot;#I&quot;)"><g data-name="Group 106"><g data-name="Group 105"><g data-name="Group 104" transform="translate(47.118 13.965)" clip-path="url(&quot;#J&quot;)"><path d="M13.742 1.846 26.83 20.354l.652-.923L13.742.001 0 19.43l.653.923L13.742 1.846Z" fill="#fff" fill-rule="evenodd" data-name="Path 46"/></g></g></g></g></g><g data-name="Group 110"><g data-name="Group 109" transform="translate(60.757 14.087)" clip-path="url(&quot;#K&quot;)"><path d="M0 0h28.76v40.761H0V0z" fill-rule="evenodd" fill="url(&quot;#L&quot;)" transform="rotate(-25.125 8.198 36.79)" data-name="Rectangle 55"/></g></g><g data-name="Group 115"><g data-name="Group 114" clip-path="url(&quot;#M&quot;)"><g data-name="Group 113"><g data-name="Group 112"><g data-name="Group 111" transform="translate(47.541 13.965)" clip-path="url(&quot;#N&quot;)"><path d="M13.677 23.626 13.417.14 13.318 0 0 18.833l12.559-8 1.118 12.793Z" fill="#fff" fill-rule="evenodd" data-name="Path 48"/></g></g></g><path d="m60.86 14.335-.825 15.029.91 8.227.273-8.279-.358-14.977Z" fill="#fff" fill-rule="evenodd" data-name="Path 49"/></g></g><g data-name="Group 117"><g data-name="Group 116" transform="translate(61.026 30.984)" clip-path="url(&quot;#O&quot;)"><path d="M0 0h28.917v22.676H0V0z" fill-rule="evenodd" fill="url(&quot;#P&quot;)" transform="rotate(-13.392 1.993 16.974)" data-name="Rectangle 58"/></g></g><g data-name="Group 119"><g data-name="Group 118" transform="translate(61.026 30)" clip-path="url(&quot;#Q&quot;)"><path d="M0 0h29.987v31.413H0V0z" fill-rule="evenodd" fill="url(&quot;#R&quot;)" transform="rotate(-52.792 7.245 14.597)" data-name="Rectangle 59"/></g></g><g data-name="Group 127"><g data-name="Group 126" clip-path="url(&quot;#S&quot;)"><g data-name="Group 122"><g data-name="Group 121"><g data-name="Group 120" transform="translate(71.98 30.004)" clip-path="url(&quot;#T&quot;)"><path d="M14.674.98 0 0l10.026 14.933L14.674.98Z" fill="#fff" fill-rule="evenodd" data-name="Path 52"/></g></g></g><g data-name="Group 125"><g data-name="Group 124"><g data-name="Group 123" transform="translate(61.026 30.004)" clip-path="url(&quot;#U&quot;)"><path d="M15.193 6.951 10.954 0 25.63.98 0 18.188 15.193 6.95Z" fill="#fff" fill-rule="evenodd" data-name="Path 53"/></g></g></g></g></g><g data-name="Group 129"><g data-name="Group 128" transform="translate(35.59 30.984)" clip-path="url(&quot;#V&quot;)"><path d="M0 0h28.436v30.868H0V0z" fill-rule="evenodd" fill="url(&quot;#W&quot;)" transform="rotate(-56.785 7.198 13.317)" data-name="Rectangle 63"/></g></g><g data-name="Group 131"><g data-name="Group 130" transform="translate(35.59 30)" clip-path="url(&quot;#X&quot;)"><path d="M0 0h18.673v25.968H0V0z" fill-rule="evenodd" fill="url(&quot;#Y&quot;)" transform="rotate(-88.919 9.095 9.268)" data-name="Rectangle 64"/></g></g><g data-name="Group 139"><g data-name="Group 138" clip-path="url(&quot;#Z&quot;)"><g data-name="Group 134"><g data-name="Group 133"><g data-name="Group 132" transform="translate(35.59 30.004)" clip-path="url(&quot;#aa&quot;)"><path d="M0 .98 14.674 0 4.648 14.933 0 .98Z" fill="#fff" fill-rule="evenodd" data-name="Path 56"/></g></g></g><g data-name="Group 137"><g data-name="Group 136"><g data-name="Group 135" transform="translate(35.59 30.004)" clip-path="url(&quot;#ab&quot;)"><path d="M10.435 6.951 14.675 0 0 .98l25.629 17.208L10.435 6.95Z" fill="#fff" fill-rule="evenodd" data-name="Path 57"/></g></g></g></g></g><g data-name="Group 141"><g data-name="Group 140" transform="translate(25.399 39.221)" clip-path="url(&quot;#ac&quot;)"><path d="M0 0h74.435v72.532H0V0z" fill-rule="evenodd" fill="url(&quot;#ad&quot;)" transform="rotate(-2.352 1.429 69.621)" data-name="Rectangle 68"/></g></g><g data-name="Group 152"><g data-name="Group 151" clip-path="url(&quot;#ae&quot;)"><path d="M61.11 107.31c-19.515 0-35.382-15.174-35.81-34.047-.005.26-.01.52-.01.781 0 19.234 16.036 34.828 35.82 34.828 19.78 0 35.818-15.594 35.818-34.828 0-.261-.005-.52-.01-.78C96.49 92.135 80.62 107.31 61.11 107.31" fill="#fff" fill-rule="evenodd" data-name="Path 59"/><g data-name="Group 144"><g data-name="Group 143"><g data-name="Group 142" transform="translate(25.399 39.221)" clip-path="url(&quot;#af&quot;)"><path d="M35.819 0C16.035 0-.001 15.591-.001 34.823c0 .426.02.841.037 1.263C9.159 44.04 21.72 48.96 35.586 48.96c14.11 0 26.868-5.095 36.027-13.299.008-.281.024-.556.024-.839C71.637 15.591 55.599 0 35.819 0" fill="#fff" fill-rule="evenodd" data-name="Path 60"/></g></g></g><g data-name="Group 147"><g data-name="Group 146"><g data-name="Group 145" transform="translate(32.632 39.221)" clip-path="url(&quot;#ag&quot;)"><path d="M57.17 13.748C50.628 5.398 40.294 0 28.661 0 16.94 0 6.534 5.478 0 13.938c8.097 4.862 17.887 7.709 28.43 7.709 10.684 0 20.582-2.92 28.74-7.899" fill="#fff" fill-rule="evenodd" data-name="Path 61"/></g></g></g><g data-name="Group 150"><g data-name="Group 149"><g data-name="Group 148" transform="translate(25.4 39.221)" clip-path="url(&quot;#ah&quot;)"><path d="M35.817 1.993c19.435 0 35.246 15.06 35.79 33.827.011-.33.028-.661.028-.997C71.635 15.591 55.597 0 35.817 0 16.035 0 0 15.591 0 34.823c0 .336.016.667.026.997C.57 17.052 16.379 1.993 35.816 1.993" fill="#fff" fill-rule="evenodd" data-name="Path 62"/></g></g></g><path d="M56.408 41.511c1.667-.128 3.385.507 2.552 1.23-.834.725-6.471 3.977-8.93 1.968-2.462-2.013 4.417-3.048 6.378-3.198" fill="#fff" fill-rule="evenodd" data-name="Path 63"/><path d="M37.028 50.365c-5.22 4.39-9.435 12.503-9.33 17.243.106 4.738 2.639-2.697 3.946-5.395 1.31-2.695 7.845-10.923 12.583-13.412 4.74-2.492.961-5.302-7.199 1.564" fill="#fff" fill-rule="evenodd" data-name="Path 64"/></g></g><g data-name="Group 154"><g data-name="Group 153" transform="translate(34.587 48.115)" clip-path="url(&quot;#ai&quot;)"><path d="M0 0h62.441v61.287H0V0z" fill-rule="evenodd" fill="url(&quot;#aj&quot;)" transform="rotate(-11.391 5.114 51.278)" data-name="Rectangle 73"/></g></g><g data-name="Group 165"><g data-name="Group 164" clip-path="url(&quot;#ak&quot;)"><g data-name="Group 157"><g data-name="Group 156"><g data-name="Group 155" transform="translate(33.053 46.873)" clip-path="url(&quot;#al&quot;)"><path d="M28.123 54.756C12.616 54.756 0 42.474 0 27.377 0 12.282 12.616 0 28.123 0c15.506 0 28.12 12.282 28.12 27.377 0 15.097-12.614 27.379-28.12 27.379m0-52.27c-14.136 0-25.639 11.166-25.639 24.891 0 13.727 11.503 24.894 25.639 24.894 14.135 0 25.635-11.167 25.635-24.894 0-13.725-11.5-24.892-25.635-24.892" fill="#fff" fill-rule="evenodd" data-name="Path 66"/></g></g></g><g data-name="Group 160"><g data-name="Group 159"><g data-name="Group 158" transform="translate(41.512 48.115)" clip-path="url(&quot;#am&quot;)"><path d="M19.708 0C11.897 0 4.872 3.27 0 8.481 4.754 4.185 11.12 1.56 18.122 1.56c14.706 0 26.628 11.59 26.628 25.892 0 6.709-2.62 12.82-6.924 17.419 5.237-4.73 8.51-11.479 8.51-18.976C46.337 11.595 34.417 0 19.709 0" fill="#5b6cb2" fill-rule="evenodd" data-name="Path 67"/></g></g></g><g data-name="Group 163"><g data-name="Group 162"><g data-name="Group 161" transform="translate(34.584 48.115)" clip-path="url(&quot;#an&quot;)"><path d="M10.047 41.21c0-16.71 11.924-25.892 26.63-25.892 6.01 0 11.553 1.936 16.006 5.2C50.14 8.797 39.443 0 26.63 0 11.923 0 0 11.595 0 25.894c0 8.463 4.173 15.972 10.624 20.698a25.579 25.579 0 0 1-.577-5.381" fill="#9c84b2" fill-rule="evenodd" data-name="Path 68"/></g></g></g><path d="M61.22 98.49c-14.451 0-26.205-11.195-26.61-25.15-.01.247-.023.493-.023.743 0 14.304 11.924 25.894 26.633 25.894S87.85 88.387 87.85 74.083c0-.25-.01-.496-.018-.744-.408 13.956-12.16 25.152-26.61 25.152" fill="#fff" fill-rule="evenodd" data-name="Path 69"/><path d="M29.42 90.293s1.337 2.212 2.773 4.294l7.454-4.753-10.226.46Z" fill="#adb2bb" fill-rule="evenodd" data-name="Path 70"/></g></g><g data-name="Group 167"><g data-name="Group 166" transform="translate(32.193 89.83)" clip-path="url(&quot;#ao&quot;)"><path d="M0 0h11.13v11.647H0V0z" fill-rule="evenodd" fill="url(&quot;#ap&quot;)" transform="rotate(-31.095 2.339 8.405)" data-name="Rectangle 78"/></g></g><g data-name="Group 169"><g data-name="Group 168" clip-path="url(&quot;#aq&quot;)"><path d="m39.826 89.834-2.71 10.07-1.109-1.018 3.82-9.052Z" fill="#fff" fill-rule="evenodd" data-name="Path 72"/><path d="m29.218 89.505.203.788 10.405-.46-10.608-.328Z" fill="#fff" fill-rule="evenodd" data-name="Path 73"/><path d="M92.472 90.293s-1.337 2.212-2.773 4.294l-7.454-4.753 10.227.46Z" fill="#adb2bb" fill-rule="evenodd" data-name="Path 74"/></g></g><g data-name="Group 171"><g data-name="Group 170" transform="translate(82.164 89.83)" clip-path="url(&quot;#ar&quot;)"><path d="M0 0h11.646v11.13H0V0z" fill-rule="evenodd" fill="url(&quot;#as&quot;)" transform="rotate(-58.905 3.877 6.867)" data-name="Rectangle 80"/></g></g><g data-name="Group 176"><g data-name="Group 175" clip-path="url(&quot;#at&quot;)"><path d="m82.066 89.834 2.71 10.07 1.109-1.018-3.819-9.052Z" fill="#fff" fill-rule="evenodd" data-name="Path 76"/><path d="m92.675 89.505-.203.788-10.406-.46 10.609-.328Z" fill="#fff" fill-rule="evenodd" data-name="Path 77"/><g data-name="Group 174"><g data-name="Group 173"><g data-name="Group 172" transform="translate(28.38 31.022)" clip-path="url(&quot;#au&quot;)"><path d="M0 34.877c3.748-4.206 14.769-17.115 14.769-17.115S23.975.486 24.198 0c.062-.14-11.765 16.244-11.765 16.244L0 34.877Z" fill="#fff" fill-rule="evenodd" data-name="Path 78"/></g></g></g><path d="M44.172 45.692c-3.395-2.658-2.777-10.124-2.805-12.237v2.025c0-.324-.026-.673-.026-.749v-1.276a23.051 23.051 0 0 1-.188 2.674s-.997 7.493-2.792 9.042c-4.046 3.55-14.227 2.865-10.322 2.957 13.185.283 13.185 13.152 13.302 17.374v-2.125c.01.152.026.28.026.355v1.77c.279-9.993.246-16.316 11.75-17.16 3.81-.292-4.972.442-8.945-2.65" fill="#fff" fill-rule="evenodd" data-name="Path 79"/></g></g><g data-name="Group 178"><g data-name="Group 177" transform="translate(88.01 73.204)" clip-path="url(&quot;#av&quot;)"><path d="M0 0h11.325v30.208H0V0z" fill-rule="evenodd" fill="url(&quot;#aw&quot;)" transform="rotate(-85.653 4.54 4.899)" data-name="Rectangle 84"/></g></g><g data-name="Group 180"><g data-name="Group 179" transform="translate(88.01 64.216)" clip-path="url(&quot;#ax&quot;)"><path d="M0 0h24.104v29.613H0V0z" fill-rule="evenodd" fill="url(&quot;#ay&quot;)" transform="rotate(-55.944 3.763 7.085)" data-name="Rectangle 85"/></g></g><g data-name="Group 188"><g data-name="Group 187" clip-path="url(&quot;#az&quot;)"><g data-name="Group 183"><g data-name="Group 182"><g data-name="Group 181" transform="translate(95.693 64.27)" clip-path="url(&quot;#aA&quot;)"><path d="M21.92 9.03.056 0l1.169 8.993L0 17.987l21.92-8.958Z" fill="#fff" fill-rule="evenodd" data-name="Path 82"/></g></g></g><g data-name="Group 186"><g data-name="Group 185"><g data-name="Group 184" transform="translate(88.01 64.27)" clip-path="url(&quot;#aB&quot;)"><path d="M8.555 8.133 7.74 0l21.863 9.03L0 8.933l8.555-.801Z" fill="#fff" fill-rule="evenodd" data-name="Path 83"/></g></g></g></g></g><g data-name="Group 190"><g data-name="Group 189" transform="translate(5.42 73.204)" clip-path="url(&quot;#aC&quot;)"><path d="M0 0h30.209v11.325H0V0z" fill-rule="evenodd" fill="url(&quot;#aD&quot;)" transform="rotate(-4.347 .345 9.094)" data-name="Rectangle 89"/></g></g><g data-name="Group 192"><g data-name="Group 191" transform="translate(5.42 64.216)" clip-path="url(&quot;#aE&quot;)"><path d="M0 0h29.613v24.104H0V0z" fill-rule="evenodd" fill="url(&quot;#aF&quot;)" transform="rotate(-34.056 2.543 8.305)" data-name="Rectangle 90"/></g></g><g data-name="Group 200"><g data-name="Group 199" clip-path="url(&quot;#aG&quot;)"><g data-name="Group 195"><g data-name="Group 194"><g data-name="Group 193" transform="translate(5.42 64.27)" clip-path="url(&quot;#aH&quot;)"><path d="M0 9.03 21.864 0l-1.169 8.993 1.225 8.994L0 9.029Z" fill="#fff" fill-rule="evenodd" data-name="Path 86"/></g></g></g><g data-name="Group 198"><g data-name="Group 197"><g data-name="Group 196" transform="translate(5.42 64.27)" clip-path="url(&quot;#aI&quot;)"><path d="M21.048 8.133 21.864 0 0 9.03l29.604-.096-8.556-.801Z" fill="#fff" fill-rule="evenodd" data-name="Path 87"/></g></g></g></g></g><g data-name="Group 202"><g data-name="Group 201" transform="translate(20.322 68.594)" clip-path="url(&quot;#aJ&quot;)"><path d="M0 0h11.67v11.454H0V0z" fill-rule="evenodd" fill="url(&quot;#aK&quot;)" transform="rotate(-11.391 .956 9.583)" data-name="Rectangle 94"/></g></g><g data-name="Group 213"><g data-name="Group 212" clip-path="url(&quot;#aL&quot;)"><g data-name="Group 205"><g data-name="Group 204"><g data-name="Group 203" transform="translate(20.035 68.361)" clip-path="url(&quot;#aM&quot;)"><path d="M5.256 10.233C2.358 10.233 0 7.938 0 5.116 0 2.296 2.358 0 5.256 0s5.256 2.295 5.256 5.116c0 2.822-2.358 5.117-5.256 5.117m0-9.768C2.614.465.465 2.552.465 5.116c0 2.566 2.15 4.653 4.79 4.653 2.643 0 4.792-2.087 4.792-4.653 0-2.564-2.15-4.651-4.791-4.651" fill="#fff" fill-rule="evenodd" data-name="Path 89"/></g></g></g><g data-name="Group 208"><g data-name="Group 207"><g data-name="Group 206" transform="translate(21.616 68.594)" clip-path="url(&quot;#aN&quot;)"><path d="M3.683 0C2.223 0 .91.61 0 1.585A5.031 5.031 0 0 1 3.387.291c2.748 0 4.976 2.166 4.976 4.84 0 1.253-.49 2.395-1.294 3.255a4.766 4.766 0 0 0 1.59-3.547C8.66 2.167 6.433 0 3.684 0" fill="#5b6cb2" fill-rule="evenodd" data-name="Path 90"/></g></g></g><g data-name="Group 211"><g data-name="Group 210"><g data-name="Group 209" transform="translate(20.322 68.594)" clip-path="url(&quot;#aO&quot;)"><path d="M1.877 7.702c0-3.124 2.228-4.84 4.977-4.84 1.123 0 2.159.362 2.991.972C9.37 1.644 7.371 0 4.975 0 2.228 0 0 2.167 0 4.839 0 6.42.78 7.824 1.985 8.707a4.728 4.728 0 0 1-.108-1.005" fill="#9c84b2" fill-rule="evenodd" data-name="Path 91"/></g></g></g></g></g><g data-name="Group 215"><g data-name="Group 214" transform="translate(92.192 68.594)" clip-path="url(&quot;#aP&quot;)"><path d="M0 0h11.67v11.454H0V0z" fill-rule="evenodd" fill="url(&quot;#aQ&quot;)" transform="rotate(-11.391 .956 9.583)" data-name="Rectangle 99"/></g></g><g data-name="Group 226"><g data-name="Group 225" clip-path="url(&quot;#aR&quot;)"><g data-name="Group 218"><g data-name="Group 217"><g data-name="Group 216" transform="translate(91.905 68.361)" clip-path="url(&quot;#aS&quot;)"><path d="M5.256 10.233C2.358 10.233 0 7.938 0 5.116 0 2.296 2.358 0 5.256 0s5.256 2.295 5.256 5.116c0 2.822-2.358 5.117-5.256 5.117m0-9.768C2.614.465.465 2.552.465 5.116c0 2.566 2.15 4.653 4.79 4.653 2.643 0 4.792-2.087 4.792-4.653 0-2.564-2.149-4.651-4.791-4.651" fill="#fff" fill-rule="evenodd" data-name="Path 93"/></g></g></g><g data-name="Group 221"><g data-name="Group 220"><g data-name="Group 219" transform="translate(93.487 68.594)" clip-path="url(&quot;#aT&quot;)"><path d="M3.683 0C2.223 0 .91.61 0 1.585A5.031 5.031 0 0 1 3.387.291c2.748 0 4.976 2.166 4.976 4.84 0 1.253-.49 2.395-1.294 3.255a4.766 4.766 0 0 0 1.59-3.547C8.66 2.167 6.433 0 3.684 0" fill="#5b6cb2" fill-rule="evenodd" data-name="Path 94"/></g></g></g><g data-name="Group 224"><g data-name="Group 223"><g data-name="Group 222" transform="translate(92.192 68.594)" clip-path="url(&quot;#aU&quot;)"><path d="M1.877 7.702c0-3.124 2.228-4.84 4.976-4.84 1.124 0 2.16.362 2.992.972C9.37 1.644 7.37 0 4.975 0 2.228 0 0 2.167 0 4.839 0 6.42.78 7.824 1.985 8.707a4.73 4.73 0 0 1-.108-1.005" fill="#9c84b2" fill-rule="evenodd" data-name="Path 95"/></g></g></g></g></g><g data-name="Group 228"><g data-name="Group 227" transform="translate(60.858 96.364)" clip-path="url(&quot;#aV&quot;)"><path d="M0 0h19.982v17.944H0V0z" fill-rule="evenodd" fill="url(&quot;#aW&quot;)" transform="rotate(-29.708 2.767 10.434)" data-name="Rectangle 104"/></g></g><g data-name="Group 230"><g data-name="Group 229" transform="translate(60.858 95.725)" clip-path="url(&quot;#aX&quot;)"><path d="M0 0h16.634v11.807H0V0z" fill-rule="evenodd" fill="url(&quot;#aY&quot;)" data-name="Rectangle 105"/></g></g><g data-name="Group 238"><g data-name="Group 237" clip-path="url(&quot;#aZ&quot;)"><g data-name="Group 233"><g data-name="Group 232"><g data-name="Group 231" transform="translate(67.967 95.728)" clip-path="url(&quot;#ba&quot;)"><path d="M9.525.636 0 0l6.507 9.692L9.525.636Z" fill="#fff" fill-rule="evenodd" data-name="Path 98"/></g></g></g><g data-name="Group 236"><g data-name="Group 235"><g data-name="Group 234" transform="translate(60.858 95.728)" clip-path="url(&quot;#bb&quot;)"><path d="M9.862 4.51 7.109 0l9.525.636L0 11.804l9.862-7.293Z" fill="#fff" fill-rule="evenodd" data-name="Path 99"/></g></g></g></g></g><g data-name="Group 240"><g data-name="Group 239" transform="translate(44.242 96.364)" clip-path="url(&quot;#bc&quot;)"><path d="M0 0h17.944v19.982H0V0z" fill-rule="evenodd" fill="url(&quot;#bd&quot;)" transform="rotate(-60.292 4.85 8.351)" data-name="Rectangle 109"/></g></g><g data-name="Group 242"><g data-name="Group 241" transform="translate(44.242 95.725)" clip-path="url(&quot;#be&quot;)"><path d="M0 0h12.119v16.854H0V0z" fill-rule="evenodd" fill="url(&quot;#bf&quot;)" transform="rotate(-88.919 5.903 6.015)" data-name="Rectangle 110"/></g></g><g data-name="Group 250"><g data-name="Group 249" clip-path="url(&quot;#bg&quot;)"><g data-name="Group 245"><g data-name="Group 244"><g data-name="Group 243" transform="translate(44.242 95.728)" clip-path="url(&quot;#bh&quot;)"><path d="M0 .636 9.524 0 3.017 9.692 0 .636Z" fill="#fff" fill-rule="evenodd" data-name="Path 102"/></g></g></g><g data-name="Group 248"><g data-name="Group 247"><g data-name="Group 246" transform="translate(44.242 95.728)" clip-path="url(&quot;#bi&quot;)"><path d="M6.772 4.51 9.524 0 0 .636l16.634 11.168-9.862-7.293Z" fill="#fff" fill-rule="evenodd" data-name="Path 103"/></g></g></g></g></g><g data-name="Group 252"><g data-name="Group 251" transform="translate(44.242 106.941)" clip-path="url(&quot;#bj&quot;)"><path d="M0 0h19.982v17.944H0V0z" fill-rule="evenodd" fill="url(&quot;#bk&quot;)" transform="rotate(-29.708 2.767 10.434)" data-name="Rectangle 114"/></g></g><g data-name="Group 254"><g data-name="Group 253" transform="translate(44.242 106.941)" clip-path="url(&quot;#bl&quot;)"><path d="M0 0h20.398v19.235H0V0z" fill-rule="evenodd" fill="url(&quot;#bm&quot;)" transform="rotate(-35.194 3.402 10.728)" data-name="Rectangle 115"/></g></g><g data-name="Group 259"><g data-name="Group 258" clip-path="url(&quot;#bn&quot;)"><g data-name="Group 257"><g data-name="Group 256"><g data-name="Group 255" transform="translate(44.242 109.054)" clip-path="url(&quot;#bo&quot;)"><path d="m0 9.056 9.524.635L3.017 0 0 9.056Z" fill="#fff" fill-rule="evenodd" data-name="Path 106"/></g></g></g><path d="m51.41 115.236 2.356 3.51-9.524-.636 6.27-4.21.897 1.336Z" fill="#adb2bb" fill-rule="evenodd" data-name="Path 107"/></g></g><g data-name="Group 261"><g data-name="Group 260" transform="translate(60.858 106.941)" clip-path="url(&quot;#bp&quot;)"><path d="M0 0h17.944v19.983H0V0z" fill-rule="evenodd" fill="url(&quot;#bq&quot;)" transform="rotate(-60.292 4.85 8.352)" data-name="Rectangle 118"/></g></g><g data-name="Group 263"><g data-name="Group 262" transform="translate(60.858 106.941)" clip-path="url(&quot;#br&quot;)"><path d="M0 0h17.303v19.898H0V0z" fill-rule="evenodd" fill="url(&quot;#bs&quot;)" transform="rotate(-67.345 5.448 8.177)" data-name="Rectangle 119"/></g></g><g data-name="Group 268"><g data-name="Group 267" clip-path="url(&quot;#bt&quot;)"><g data-name="Group 266"><g data-name="Group 265"><g data-name="Group 264" transform="translate(67.968 109.054)" clip-path="url(&quot;#bu&quot;)"><path d="M9.524 9.056 0 9.691 6.506 0l3.018 9.056Z" fill="#fff" fill-rule="evenodd" data-name="Path 110"/></g></g></g><path d="m70.566 114.874-2.598 3.871 9.524-.635-6.27-4.21-.656.974Z" fill="#adb2bb" fill-rule="evenodd" data-name="Path 111"/></g></g><g data-name="Group 270"><g data-name="Group 269" transform="translate(47.118 98.017)" clip-path="url(&quot;#bv&quot;)"><path d="M0 0h27.813v17.568H0V0z" fill-rule="evenodd" fill="url(&quot;#bw&quot;)" transform="rotate(-1.127 .167 17.03)" data-name="Rectangle 122"/></g></g><g data-name="Group 284"><g data-name="Group 283" clip-path="url(&quot;#bx&quot;)"><g data-name="Group 273"><g data-name="Group 272"><g data-name="Group 271" transform="translate(47.118 98.017)" clip-path="url(&quot;#by&quot;)"><path d="m13.742.809 13.089 8.11.652-.404L13.742 0 0 8.515l.653.405L13.742.809Z" fill="#fff" fill-rule="evenodd" data-name="Path 113"/></g></g></g><g data-name="Group 276"><g data-name="Group 275"><g data-name="Group 274" transform="translate(60.757 98.07)" clip-path="url(&quot;#bz&quot;)"><path d="m0 16.923 13.655-8.461L0 0v16.923Z" fill="#9c84b2" fill-rule="evenodd" data-name="Path 114"/></g></g></g><g data-name="Group 279"><g data-name="Group 278"><g data-name="Group 277" transform="translate(47.541 98.017)" clip-path="url(&quot;#bA&quot;)"><path d="m13.327 16.857-.26-10.292L13.319 0 0 8.253l8.806 2.349 4.521 6.255Z" fill="#fff" fill-rule="evenodd" data-name="Path 115"/></g></g></g><g data-name="Group 282"><g data-name="Group 281"><g data-name="Group 280" transform="translate(47.118 98.178)" clip-path="url(&quot;#bB&quot;)"><path d="M13.742 0 0 8.353l13.742-.539 13.741.54L13.742 0Z" fill="#fff" fill-rule="evenodd" data-name="Path 116"/></g></g></g></g></g><g data-name="Group 286"><g data-name="Group 285" transform="translate(55.89 101.561)" clip-path="url(&quot;#bC&quot;)"><path d="M0 0h11.67v11.454H0V0z" fill-rule="evenodd" fill="url(&quot;#bD&quot;)" transform="rotate(-11.391 .956 9.583)" data-name="Rectangle 128"/></g></g><g data-name="Group 297"><g data-name="Group 296" clip-path="url(&quot;#bE&quot;)"><g data-name="Group 289"><g data-name="Group 288"><g data-name="Group 287" transform="translate(55.604 101.329)" clip-path="url(&quot;#bF&quot;)"><path d="M5.256 10.233C2.358 10.233 0 7.938 0 5.116 0 2.296 2.358 0 5.256 0s5.255 2.295 5.255 5.116c0 2.822-2.357 5.117-5.255 5.117m0-9.769C2.614.464.464 2.551.464 5.116c0 2.566 2.15 4.652 4.792 4.652 2.641 0 4.79-2.086 4.79-4.652 0-2.565-2.149-4.652-4.79-4.652" fill="#fff" fill-rule="evenodd" data-name="Path 118"/></g></g></g><g data-name="Group 292"><g data-name="Group 291"><g data-name="Group 290" transform="translate(57.184 101.561)" clip-path="url(&quot;#bG&quot;)"><path d="M3.683 0C2.223 0 .91.611 0 1.584A5.038 5.038 0 0 1 3.387.291c2.748 0 4.976 2.166 4.976 4.84 0 1.253-.49 2.395-1.294 3.254A4.766 4.766 0 0 0 8.66 4.84C8.66 2.167 6.433 0 3.684 0" fill="#5b6cb2" fill-rule="evenodd" data-name="Path 119"/></g></g></g><g data-name="Group 295"><g data-name="Group 294"><g data-name="Group 293" transform="translate(55.89 101.561)" clip-path="url(&quot;#bH&quot;)"><path d="M1.878 7.702c0-3.123 2.229-4.84 4.977-4.84 1.123 0 2.159.362 2.991.973C9.37 1.644 7.372 0 4.976 0 2.229 0 0 2.167 0 4.839 0 6.42.78 7.824 1.986 8.707a4.758 4.758 0 0 1-.108-1.005" fill="#9c84b2" fill-rule="evenodd" data-name="Path 120"/></g></g></g></g></g></g></g><defs><clipPath id="b"><path d="M31.944 383.402H11.621C10.526 383.402 0 395.033 0 399.207c0 4.173 10.526 15.805 11.621 15.805H112.077c1.095 0 11.621-11.632 11.621-15.805 0-4.174-10.526-15.805-11.62-15.805H31.943Z" data-name="Path 7" transform="translate(0 -383.402)"/></clipPath><clipPath id="d"><path d="M156.582 603.545H88.106c0 4.326 10.526 15.638 11.62 15.638h73.024c1.096 0 11.621-11.312 11.621-15.638h-27.79Z" data-name="Path 8" transform="translate(-88.106 -603.545)"/></clipPath><clipPath id="f"><path d="M157.07 265.851H99.726c-1.095 0-11.621 11.313-11.621 15.306h96.265c0-3.993-10.525-15.306-11.62-15.306h-15.682Z" data-name="Path 9" transform="translate(-88.106 -265.851)"/></clipPath><clipPath id="i"><path d="M0 0h27.946v68.21H0V0z" data-name="Rectangle 30"/></clipPath><clipPath id="j"><path d="M0 0h27.946v68.21H0V0z" data-name="Rectangle 31"/></clipPath><clipPath id="h"><path d="M0 0h123.698v118.748H0V0z" data-name="Rectangle 32"/></clipPath><clipPath id="k"><path d="M206.718 0a3.969 3.969 0 0 0-3.97 3.972 3.971 3.971 0 0 0 2.44 3.665l-8.603 12.885-7.744-5.183c.574-.594.93-1.403.93-2.294a3.304 3.304 0 1 0-3.304 3.304c.129 0 .256-.01.382-.025a87.492 87.492 0 0 0 .064 5.603c.044.936-.168 1.642-.516 2.177-4.067-.49-8.025-1.74-10.27-2.544a2.6 2.6 0 1 0-1.852.776c.092 0 .182-.017.272-.027l3.378 18.891v1.602s2.888-.184 27.811-.184h1.966c24.923 0 27.81.184 27.81.184V41.2l3.38-18.895c.105.013.207.032.314.032a2.602 2.602 0 1 0-2.601-2.602c0 .707.284 1.345.743 1.812-2.238.803-6.196 2.055-10.264 2.552-.35-.535-.56-1.24-.515-2.172.098-2.055.092-4.108.063-5.603a3.304 3.304 0 1 0-1.991-.985l-7.775 5.205-8.617-12.907A3.972 3.972 0 0 0 206.719 0Z" data-name="Path 16" transform="translate(-171.674)"/></clipPath><clipPath id="n"><path d="M0 0h70.121v42.802H0V0z" data-name="Rectangle 34"/></clipPath><clipPath id="m"><path d="M0 0h123.698v118.748H0V0z" data-name="Rectangle 35"/></clipPath><clipPath id="o"><path d="M112.845 220.002c-4.698 3.986-6.548 8.538-6.548 8.538l-4.27-4.417s-2.99 1.981-6.121 12.088c-3.132 10.105-1.424 12.076-1.424 12.076H88.79s-.293 1.17 2.268 10.422c2.562 9.252 8.959 14.265 8.959 14.265l-6.14 3.576s3.667 6.014 15.196 10.57c11.53 4.554 18.148 1.35 18.148 1.35l.851-66.03-5.69-8.13s-4.84 1.707-9.536 5.692" data-name="Path 25" transform="translate(-88.779 -214.31)"/></clipPath><clipPath id="r"><path d="M0 0h34.391v63.728H0V0z" data-name="Rectangle 37"/></clipPath><clipPath id="s"><path d="M0 0h39.292v67.777H0V0z" data-name="Rectangle 38"/></clipPath><clipPath id="t"><path d="M0 0h39.292v52.414H0V0z" data-name="Rectangle 39"/></clipPath><clipPath id="u"><path d="M0 0h32.032v35.087H0V0z" data-name="Rectangle 40"/></clipPath><clipPath id="v"><path d="M0 0h18.599v17.176H0V0z" data-name="Rectangle 41"/></clipPath><clipPath id="w"><path d="M0 0h38.444v44.143H0V0z" data-name="Rectangle 42"/></clipPath><clipPath id="q"><path d="M0 0h123.698v118.748H0V0z" data-name="Rectangle 43"/></clipPath><clipPath id="x"><path d="m445.408 221.139-.452 67.332s6.618 3.203 18.148-1.352 15.195-10.569 15.195-10.569l-6.138-3.576s6.397-5.013 8.958-14.265c2.562-9.252 2.268-10.422 2.268-10.422h-5.693s1.708-1.971-1.423-12.076c-3.132-10.107-6.121-12.088-6.121-12.088l-4.27 4.417s-1.85-4.552-6.548-8.538c-4.697-3.985-9.537-5.692-9.537-5.692l-4.387 6.829Z" data-name="Path 35" transform="translate(-444.956 -214.31)"/></clipPath><clipPath id="A"><path d="M0 0h34.39v63.728H0V0z" data-name="Rectangle 45"/></clipPath><clipPath id="B"><path d="M0 0h38.272v67.777H0V0z" data-name="Rectangle 46"/></clipPath><clipPath id="C"><path d="M0 0h38.055v52.414H0V0z" data-name="Rectangle 47"/></clipPath><clipPath id="D"><path d="M0 0h30.73v35.087H0V0z" data-name="Rectangle 48"/></clipPath><clipPath id="E"><path d="M0 0h17.297v17.176H0V0z" data-name="Rectangle 49"/></clipPath><clipPath id="F"><path d="M0 0h38.443v44.143H0V0z" data-name="Rectangle 50"/></clipPath><clipPath id="z"><path d="M0 0h123.698v118.748H0V0z" data-name="Rectangle 51"/></clipPath><clipPath id="G"><path d="m302.658 109.135 13.742 19.431 13.741-19.431L316.4 89.704l-13.742 19.43Z" data-name="Path 45" transform="translate(-302.658 -89.704)"/></clipPath><clipPath id="J"><path d="M0 0h27.483v20.354H0V0z" data-name="Rectangle 53"/></clipPath><clipPath id="I"><path d="M0 0h123.698v118.748H0V0z" data-name="Rectangle 54"/></clipPath><clipPath id="K"><path d="m390.271 129.106 13.655-19.308-13.655-19.309v38.617Z" data-name="Path 47" transform="translate(-390.271 -90.489)"/></clipPath><clipPath id="N"><path d="M0 0h13.676v23.626H0V0z" data-name="Rectangle 56"/></clipPath><clipPath id="M"><path d="M0 0h123.698v118.748H0V0z" data-name="Rectangle 57"/></clipPath><clipPath id="O"><path d="m391.995 216.232 20.952-3.17 4.677-14.038-25.629 17.208Z" data-name="Path 50" transform="translate(-391.995 -199.024)"/></clipPath><clipPath id="Q"><path d="m391.995 210.893 25.629-17.208-14.765-.985-10.864 18.193Z" data-name="Path 51" transform="translate(-391.995 -192.7)"/></clipPath><clipPath id="T"><path d="M0 0h14.675v14.933H0V0z" data-name="Rectangle 60"/></clipPath><clipPath id="U"><path d="M0 0h25.629v18.188H0V0z" data-name="Rectangle 61"/></clipPath><clipPath id="S"><path d="M0 0h123.698v118.748H0V0z" data-name="Rectangle 62"/></clipPath><clipPath id="V"><path d="m233.281 213.061 20.953 3.171-25.63-17.208 4.677 14.037Z" data-name="Path 54" transform="translate(-228.605 -199.024)"/></clipPath><clipPath id="X"><path d="m228.605 193.685 25.63 17.208L243.37 192.7l-14.765.985Z" data-name="Path 55" transform="translate(-228.605 -192.7)"/></clipPath><clipPath id="aa"><path d="M0 0h14.674v14.933H0V0z" data-name="Rectangle 65"/></clipPath><clipPath id="ab"><path d="M0 0h25.629v18.188H0V0z" data-name="Rectangle 66"/></clipPath><clipPath id="Z"><path d="M0 0h123.698v118.748H0V0z" data-name="Rectangle 67"/></clipPath><clipPath id="ac"><path d="M163.147 286.758c0 19.234 16.036 34.828 35.819 34.828 19.78 0 35.818-15.594 35.818-34.828 0-19.232-16.038-34.823-35.818-34.823-19.783 0-35.819 15.591-35.819 34.823" data-name="Path 58" transform="translate(-163.147 -251.935)"/></clipPath><clipPath id="af"><path d="M0 0h71.637v48.96H0V0z" data-name="Rectangle 69"/></clipPath><clipPath id="ag"><path d="M0 0h57.17v21.647H0V0z" data-name="Rectangle 70"/></clipPath><clipPath id="ah"><path d="M0 0h71.635v35.82H0V0z" data-name="Rectangle 71"/></clipPath><clipPath id="ae"><path d="M0 0h123.698v118.748H0V0z" data-name="Rectangle 72"/></clipPath><clipPath id="ai"><path d="M222.167 334.96c0 14.3 11.924 25.894 26.633 25.894s26.63-11.593 26.63-25.894c0-14.299-11.921-25.894-26.63-25.894-14.71 0-26.633 11.595-26.633 25.894" data-name="Path 65" transform="translate(-222.167 -309.066)"/></clipPath><clipPath id="al"><path d="M0 0h56.244v54.756H0V0z" data-name="Rectangle 74"/></clipPath><clipPath id="am"><path d="M0 0h46.337v44.87H0V0z" data-name="Rectangle 75"/></clipPath><clipPath id="an"><path d="M0 0h52.683v46.592H0V0z" data-name="Rectangle 76"/></clipPath><clipPath id="ak"><path d="M0 0h123.698v118.748H0V0z" data-name="Rectangle 77"/></clipPath><clipPath id="ao"><path d="m214.244 577.024-7.454 4.753c.146.211.292.42.439.625 1.59 2.237 3.375 3.674 3.375 3.674l3.722-9.056-.082.004Z" data-name="Path 71" transform="translate(-206.79 -577.02)"/></clipPath><clipPath id="aq"><path d="M0 0h123.698v118.748H0V0z" data-name="Rectangle 79"/></clipPath><clipPath id="ar"><path d="M531.495 586.076s1.784-1.437 3.376-3.674c.146-.205.293-.414.438-.625l-7.453-4.753-.082-.004 3.721 9.056Z" data-name="Path 75" transform="translate(-527.774 -577.02)"/></clipPath><clipPath id="au"><path d="M0 0h24.198v34.877H0V0z" data-name="Rectangle 82"/></clipPath><clipPath id="at"><path d="M0 0h123.698v118.748H0V0z" data-name="Rectangle 83"/></clipPath><clipPath id="av"><path d="m572.936 479.33 21.99-9.012-29.603-.096 7.613 9.107Z" data-name="Path 80" transform="translate(-565.323 -470.222)"/></clipPath><clipPath id="ax"><path d="m565.323 421.474 29.603.096-21.936-9.084-7.667 8.988Z" data-name="Path 81" transform="translate(-565.323 -412.486)"/></clipPath><clipPath id="aA"><path d="M0 0h21.92v17.987H0V0z" data-name="Rectangle 86"/></clipPath><clipPath id="aB"><path d="M0 0h29.603v9.03H0V0z" data-name="Rectangle 87"/></clipPath><clipPath id="az"><path d="M0 0h123.698v118.748H0V0z" data-name="Rectangle 88"/></clipPath><clipPath id="aC"><path d="m34.812 470.318 21.99 9.011 7.614-9.107-29.604.096Z" data-name="Path 84" transform="translate(-34.812 -470.222)"/></clipPath><clipPath id="aE"><path d="m34.812 421.57 29.604-.096-7.668-8.988-21.936 9.084Z" data-name="Path 85" transform="translate(-34.812 -412.486)"/></clipPath><clipPath id="aH"><path d="M0 0h21.92v17.987H0V0z" data-name="Rectangle 91"/></clipPath><clipPath id="aI"><path d="M0 0h29.604v9.03H0V0z" data-name="Rectangle 92"/></clipPath><clipPath id="aG"><path d="M0 0h123.698v118.748H0V0z" data-name="Rectangle 93"/></clipPath><clipPath id="aJ"><path d="M130.536 445.447c0 2.673 2.228 4.84 4.977 4.84 2.75 0 4.977-2.167 4.977-4.84 0-2.672-2.228-4.839-4.977-4.839s-4.977 2.167-4.977 4.839" data-name="Path 88" transform="translate(-130.536 -440.608)"/></clipPath><clipPath id="aM"><path d="M0 0h10.512v10.233H0V0z" data-name="Rectangle 95"/></clipPath><clipPath id="aN"><path d="M0 0h8.66v8.386H0V0z" data-name="Rectangle 96"/></clipPath><clipPath id="aO"><path d="M0 0h9.845v8.707H0V0z" data-name="Rectangle 97"/></clipPath><clipPath id="aL"><path d="M0 0h123.698v118.748H0V0z" data-name="Rectangle 98"/></clipPath><clipPath id="aP"><path d="M592.194 445.447c0 2.673 2.228 4.84 4.977 4.84 2.75 0 4.977-2.167 4.977-4.84 0-2.672-2.228-4.839-4.977-4.839s-4.977 2.167-4.977 4.839" data-name="Path 92" transform="translate(-592.194 -440.608)"/></clipPath><clipPath id="aS"><path d="M0 0h10.512v10.233H0V0z" data-name="Rectangle 100"/></clipPath><clipPath id="aT"><path d="M0 0h8.66v8.386H0V0z" data-name="Rectangle 101"/></clipPath><clipPath id="aU"><path d="M0 0h9.845v8.707H0V0z" data-name="Rectangle 102"/></clipPath><clipPath id="aR"><path d="M0 0h123.698v118.748H0V0z" data-name="Rectangle 103"/></clipPath><clipPath id="aV"><path d="m390.916 630.16 13.6-2.058 3.034-9.11-16.634 11.168Z" data-name="Path 96" transform="translate(-390.916 -618.992)"/></clipPath><clipPath id="aX"><path d="m390.916 626.694 16.634-11.168-9.583-.639-7.051 11.807Z" data-name="Path 97" transform="translate(-390.916 -614.887)"/></clipPath><clipPath id="ba"><path d="M0 0h9.525v9.692H0V0z" data-name="Rectangle 106"/></clipPath><clipPath id="bb"><path d="M0 0h16.634v11.804H0V0z" data-name="Rectangle 107"/></clipPath><clipPath id="aZ"><path d="M0 0h123.698v118.748H0V0z" data-name="Rectangle 108"/></clipPath><clipPath id="bc"><path d="m287.218 628.102 13.6 2.058-16.634-11.168 3.034 9.11Z" data-name="Path 100" transform="translate(-284.184 -618.992)"/></clipPath><clipPath id="be"><path d="m284.184 615.526 16.634 11.168-7.05-11.807-9.584.639Z" data-name="Path 101" transform="translate(-284.184 -614.887)"/></clipPath><clipPath id="bh"><path d="M0 0h9.524v9.692H0V0z" data-name="Rectangle 111"/></clipPath><clipPath id="bi"><path d="M0 0h16.634v11.804H0V0z" data-name="Rectangle 112"/></clipPath><clipPath id="bg"><path d="M0 0h123.698v118.748H0V0z" data-name="Rectangle 113"/></clipPath><clipPath id="bj"><path d="m287.218 688.99-3.034 9.111 16.633-11.168-13.599 2.057Z" data-name="Path 104" transform="translate(-284.184 -686.933)"/></clipPath><clipPath id="bl"><path d="m284.184 698.101 9.583.639 7.05-11.807-16.633 11.168Z" data-name="Path 105" transform="translate(-284.184 -686.933)"/></clipPath><clipPath id="bo"><path d="M0 0h9.524v9.692H0V0z" data-name="Rectangle 116"/></clipPath><clipPath id="bn"><path d="M0 0h123.698v118.748H0V0z" data-name="Rectangle 117"/></clipPath><clipPath id="bp"><path d="m407.55 698.101-3.035-9.11-13.599-2.058 16.634 11.168Z" data-name="Path 108" transform="translate(-390.916 -686.933)"/></clipPath><clipPath id="br"><path d="m397.967 698.74 9.583-.639-16.634-11.168 7.051 11.807Z" data-name="Path 109" transform="translate(-390.916 -686.933)"/></clipPath><clipPath id="bu"><path d="M0 0h9.524v9.692H0V0z" data-name="Rectangle 120"/></clipPath><clipPath id="bt"><path d="M0 0h123.698v118.748H0V0z" data-name="Rectangle 121"/></clipPath><clipPath id="bv"><path d="m302.658 638.12 13.742 8.516 13.741-8.516-13.741-8.515-13.742 8.515Z" data-name="Path 112" transform="translate(-302.658 -629.605)"/></clipPath><clipPath id="by"><path d="M0 0h27.483v8.92H0V0z" data-name="Rectangle 123"/></clipPath><clipPath id="bz"><path d="M0 0h13.655v16.923H0V0z" data-name="Rectangle 124"/></clipPath><clipPath id="bA"><path d="M0 0h13.327v16.857H0V0z" data-name="Rectangle 125"/></clipPath><clipPath id="bB"><path d="M0 0h27.483v8.353H0V0z" data-name="Rectangle 126"/></clipPath><clipPath id="bx"><path d="M0 0h123.698v118.748H0V0z" data-name="Rectangle 127"/></clipPath><clipPath id="bC"><path d="M359.005 657.212c0 2.673 2.229 4.84 4.978 4.84 2.749 0 4.977-2.167 4.977-4.84 0-2.672-2.228-4.84-4.977-4.84s-4.978 2.168-4.978 4.84" data-name="Path 117" transform="translate(-359.005 -652.373)"/></clipPath><clipPath id="bF"><path d="M0 0h10.511v10.233H0V0z" data-name="Rectangle 129"/></clipPath><clipPath id="bG"><path d="M0 0h8.66v8.385H0V0z" data-name="Rectangle 130"/></clipPath><clipPath id="bH"><path d="M0 0h9.846v8.707H0V0z" data-name="Rectangle 131"/></clipPath><clipPath id="bE"><path d="M0 0h123.698v118.748H0V0z" data-name="Rectangle 132"/></clipPath><clipPath id="a"><path d="M0 0h123.698v118.748H0V0z" data-name="Rectangle 133"/></clipPath><linearGradient x1="0" y1="1.868" x2=".001" y2="1.868" id="c"><stop stop-color="#6679dc" offset="0"/><stop stop-color="#bf7ddc" offset="1"/></linearGradient><linearGradient x1="-.142" y1="1.585" x2="-.141" y2="1.585" id="e"><stop stop-color="#6679dc" offset="0"/><stop stop-color="#bf7ddc" offset="1"/></linearGradient><linearGradient x1="-.142" y1="5.054" x2="-.141" y2="5.054" id="g"><stop stop-color="#6679dc" offset="0"/><stop stop-color="#bf7ddc" offset="1"/></linearGradient><linearGradient x1="-.381" y1="2.774" x2="-.379" y2="2.774" id="l"><stop stop-color="#a2b2e7" offset="0"/><stop stop-color="#d6ffd4" offset="1"/></linearGradient><linearGradient x1="-.28" y1="1.092" x2="-.277" y2="1.092" id="p"><stop stop-color="#d6ffd4" offset="0"/><stop stop-color="#a2b2e7" offset="1"/></linearGradient><linearGradient x1="-.624" y1="1.615" x2="-.622" y2="1.615" id="y"><stop stop-color="#d6ffd4" offset="0"/><stop stop-color="#a2b2e7" offset="1"/></linearGradient><linearGradient x1="-1.005" y1="3.369" x2="-1.001" y2="3.369" id="H"><stop stop-color="#6679dc" offset="0"/><stop stop-color="#bf7ddc" offset="1"/></linearGradient><linearGradient x1="-1.85" y1="2.593" x2="-1.845" y2="2.593" id="L"><stop stop-color="#6679dc" offset="0"/><stop stop-color="#bf7ddc" offset="1"/></linearGradient><linearGradient x1="-2.053" y1="3.991" x2="-2.048" y2="3.991" id="P"><stop stop-color="#6679dc" offset="0"/><stop stop-color="#bf7ddc" offset="1"/></linearGradient><linearGradient x1="-1.962" y1="3.036" x2="-1.957" y2="3.036" id="R"><stop stop-color="#6679dc" offset="0"/><stop stop-color="#bf7ddc" offset="1"/></linearGradient><linearGradient x1="-1.202" y1="3.063" x2="-1.197" y2="3.063" id="W"><stop stop-color="#6679dc" offset="0"/><stop stop-color="#bf7ddc" offset="1"/></linearGradient><linearGradient x1="-2.092" y1="3.567" x2="-2.084" y2="3.567" id="Y"><stop stop-color="#6679dc" offset="0"/><stop stop-color="#bf7ddc" offset="1"/></linearGradient><linearGradient x1="-.322" y1="1.116" x2="-.32" y2="1.116" id="ad"><stop stop-color="#6679dc" offset="0"/><stop stop-color="#bf7ddc" offset="1"/></linearGradient><linearGradient x1="-.48" y1="1.23" x2="-.478" y2="1.23" id="aj"><stop stop-color="#d6ffd4" offset="0"/><stop stop-color="#b4c3bf" offset="1"/></linearGradient><linearGradient x1="-2.731" y1="2.595" x2="-2.717" y2="2.595" id="ap"><stop stop-color="#d6ffd4" offset="0"/><stop stop-color="#a2b2e7" offset="1"/></linearGradient><linearGradient x1="-6.878" y1="2.693" x2="-6.865" y2="2.693" id="as"><stop stop-color="#d6ffd4" offset="0"/><stop stop-color="#a2b2e7" offset="1"/></linearGradient><linearGradient x1="-8.578" y1="1.857" x2="-8.564" y2="1.857" id="aw"><stop stop-color="#6679dc" offset="0"/><stop stop-color="#bf7ddc" offset="1"/></linearGradient><linearGradient x1="-3.765" y1="2.189" x2="-3.759" y2="2.189" id="ay"><stop stop-color="#6679dc" offset="0"/><stop stop-color="#bf7ddc" offset="1"/></linearGradient><linearGradient x1="-.169" y1="4.12" x2="-.164" y2="4.12" id="aD"><stop stop-color="#6679dc" offset="0"/><stop stop-color="#bf7ddc" offset="1"/></linearGradient><linearGradient x1="-.183" y1="2.575" x2="-.178" y2="2.575" id="aF"><stop stop-color="#6679dc" offset="0"/><stop stop-color="#bf7ddc" offset="1"/></linearGradient><linearGradient x1="-1.668" y1="4.456" x2="-1.655" y2="4.456" id="aK"><stop stop-color="#d6ffd4" offset="0"/><stop stop-color="#b4c3bf" offset="1"/></linearGradient><linearGradient x1="-7.827" y1="4.456" x2="-7.814" y2="4.456" id="aQ"><stop stop-color="#d6ffd4" offset="0"/><stop stop-color="#b4c3bf" offset="1"/></linearGradient><linearGradient x1="-2.962" y1="1.436" x2="-2.954" y2="1.436" id="aW"><stop stop-color="#d6ffd4" offset="0"/><stop stop-color="#b4c3bf" offset="1"/></linearGradient><linearGradient x1="-3.659" y1="1.95" x2="-3.649" y2="1.95" id="aY"><stop stop-color="#defffc" offset="0"/><stop stop-color="#defffc" offset=".02"/><stop stop-color="#d6ffd4" offset=".512"/><stop stop-color="#adb2bb" offset="1"/></linearGradient><linearGradient x1="-2.429" y1="1.341" x2="-2.42" y2="1.341" id="bd"><stop stop-color="#d6ffd4" offset="0"/><stop stop-color="#b4c3bf" offset="1"/></linearGradient><linearGradient x1="-3.837" y1="1.516" x2="-3.824" y2="1.516" id="bf"><stop stop-color="#defffc" offset="0"/><stop stop-color="#defffc" offset=".02"/><stop stop-color="#d6ffd4" offset=".512"/><stop stop-color="#adb2bb" offset="1"/></linearGradient><linearGradient x1="-2.13" y1=".847" x2="-2.122" y2=".847" id="bk"><stop stop-color="#d6ffd4" offset="0"/><stop stop-color="#b4c3bf" offset="1"/></linearGradient><linearGradient x1="-2.077" y1=".807" x2="-2.069" y2=".807" id="bm"><stop stop-color="#d6ffd4" offset="0"/><stop stop-color="#b4c3bf" offset="1"/></linearGradient><linearGradient x1="-3.355" y1=".811" x2="-3.346" y2=".811" id="bq"><stop stop-color="#d6ffd4" offset="0"/><stop stop-color="#b4c3bf" offset="1"/></linearGradient><linearGradient x1="-3.498" y1=".797" x2="-3.489" y2=".797" id="bs"><stop stop-color="#d6ffd4" offset="0"/><stop stop-color="#b4c3bf" offset="1"/></linearGradient><linearGradient x1="-1.688" y1="1.195" x2="-1.683" y2="1.195" id="bw"><stop stop-color="#6679dc" offset="0"/><stop stop-color="#bf7ddc" offset="1"/></linearGradient><linearGradient x1="-4.716" y1="1.578" x2="-4.702" y2="1.578" id="bD"><stop stop-color="#d6ffd4" offset="0"/><stop stop-color="#b4c3bf" offset="1"/></linearGradient></defs></svg>